<svg xmlns="http://www.w3.org/2000/svg" width="2160" height="3840" viewBox="0 0 2160 3840" role="img" aria-labelledby="title"><title id="title">Voxy studio background 9x16</title><defs><linearGradient id="bg" x2="1" y2="1"><stop stop-color="#040A20"/><stop offset=".58" stop-color="#07132F"/><stop offset="1" stop-color="#02050F"/></linearGradient><linearGradient id="brand" x2="1"><stop stop-color="#00D9C0"/><stop offset="1" stop-color="#1E6BFF"/></linearGradient><filter id="glow" x="-50%" y="-50%" width="200%" height="200%"><feGaussianBlur stdDeviation="18" result="b"/><feMerge><feMergeNode in="b"/><feMergeNode in="SourceGraphic"/></feMerge></filter></defs><rect width="2160" height="3840" fill="url(#bg)"/><path d="M0 0V3840M120 0V3840M240 0V3840M360 0V3840M480 0V3840M600 0V3840M720 0V3840M840 0V3840M960 0V3840M1080 0V3840M1200 0V3840M1320 0V3840M1440 0V3840M1560 0V3840M1680 0V3840M1800 0V3840M1920 0V3840M2040 0V3840M2160 0V3840" stroke="#101C3B" stroke-width="16" opacity=".4"/><g id="logo-zone" transform="translate(240 250)"><rect width="1680" height="520" rx="70" fill="#030817" stroke="url(#brand)" stroke-width="16"/><text x="840" y="245" fill="#FFF" font-size="190" font-family="Arial,sans-serif" font-weight="800" text-anchor="middle">VOXY</text><text x="840" y="420" fill="url(#brand)" font-size="128" font-family="Arial,sans-serif" font-weight="700" text-anchor="middle">eDebatte</text></g><circle cx="1080" cy="1640" r="770" fill="none" stroke="url(#brand)" stroke-width="24" opacity=".55" filter="url(#glow)"/><path id="jarvis-waveform" d="M150 1640H300L360 1580L430 1740L500 1450L570 1880L640 1320L710 1980L780 1190L850 2050L920 1100L990 2130L1060 1030L1130 2180L1200 1110L1270 2070L1340 1240L1410 1940L1480 1370L1550 1840L1620 1480L1690 1750L1760 1550L1830 1690L2010 1640H150Z" fill="url(#brand)" opacity=".75" filter="url(#glow)"/><ellipse cx="1080" cy="3260" rx="1010" ry="330" fill="#090E1B" stroke="#1A2C53" stroke-width="18"/><path d="M100 3310Q1080 3550 2060 3310" fill="none" stroke="url(#brand)" stroke-width="24" filter="url(#glow)"/></svg>