<svg xmlns="http://www.w3.org/2000/svg" width="1400" height="2200" viewBox="0 0 1400 2200" role="img" aria-labelledby="title desc"><title id="title">Voxy standing master character</title><desc id="desc">Digital moderator with VOG pin, eDebatte pocket mark and exactly five fingers on each hand.</desc><defs><linearGradient id="bg" x1="0" y1="0" x2="1" y2="1"><stop stop-color="#040A20"/><stop offset=".58" stop-color="#07132F"/><stop offset="1" stop-color="#02050F"/></linearGradient><linearGradient id="brand" x1="0" y1="0" x2="1" y2="0"><stop stop-color="#00D9C0"/><stop offset="1" stop-color="#1E6BFF"/></linearGradient><linearGradient id="suit" x1="0" y1="0" x2="1" y2="1"><stop stop-color="#102B62"/><stop offset=".58" stop-color="#081C46"/><stop offset="1" stop-color="#06122E"/></linearGradient><linearGradient id="headGradient" x1="0" y1="0" x2="0" y2="1"><stop stop-color="#FFFFFF"/><stop offset=".7" stop-color="#F4F5F8"/><stop offset="1" stop-color="#D9DFE8"/></linearGradient><radialGradient id="screenGlow"><stop stop-color="#1F7CFF" stop-opacity=".65"/><stop offset="1" stop-color="#1F7CFF" stop-opacity="0"/></radialGradient><filter id="softGlow" x="-50%" y="-50%" width="200%" height="200%"><feGaussianBlur stdDeviation="18" result="b"/><feMerge><feMergeNode in="b"/><feMergeNode in="SourceGraphic"/></feMerge></filter><filter id="smallGlow" x="-50%" y="-50%" width="200%" height="200%"><feGaussianBlur stdDeviation="7" result="b"/><feMerge><feMergeNode in="b"/><feMergeNode in="SourceGraphic"/></feMerge></filter></defs><g id="voxy-standing-master"><g id="legs"><path d="M490 1430H665L630 2040H440Z" fill="#071126" stroke="#173B7A" stroke-width="8"/><path d="M735 1430H910L960 2040H770Z" fill="#071126" stroke="#173B7A" stroke-width="8"/><path d="M400 2010H655Q665 2100 580 2135H370Q330 2080 400 2010Z" fill="#10131B" stroke="#2C3B5C" stroke-width="8"/><path d="M745 2010H1000Q1070 2080 1030 2135H820Q735 2100 745 2010Z" fill="#10131B" stroke="#2C3B5C" stroke-width="8"/></g><g id="arms"><path d="M490 900Q370 1100 355 1500L540 1510Q580 1200 630 1040Z" fill="url(#suit)" stroke="#173B7A" stroke-width="8"/><path d="M910 900Q1030 1100 1045 1500L860 1510Q820 1200 770 1040Z" fill="url(#suit)" stroke="#173B7A" stroke-width="8"/></g><g id="body"><path d="M462.5 831.25Q505.25 760 590.75 760H809.25Q894.75 760 937.5 831.25L985 1491.5H415Z" fill="url(#suit)" stroke="#173B7A" stroke-width="8"/><path d="M657.25 760H742.75L774.1 1491.5H625.9Z" fill="#05070B"/><g id="vog-pin" transform="translate(533.75 878.75)"><rect x="-38" y="-17" width="76" height="34" rx="6" fill="#0B1224" stroke="url(#brand)" stroke-width="3"/><text x="0" y="9" fill="#FFF" font-size="22" font-family="Arial, sans-serif" font-weight="800" text-anchor="middle">VOG</text></g><g id="edebatte-pocket" transform="translate(856.75 1002.25)"><path d="M-72-18H72L58 25H-58Z" fill="#0A183A" stroke="#1E6BFF" stroke-width="3"/><text x="0" y="8" fill="url(#brand)" font-size="23" font-family="Arial, sans-serif" font-weight="700" text-anchor="middle">eDebatte</text></g></g><g id="left-hand-five-fingers" transform="translate(385 1510) scale(.62)"><rect x="-78" y="-30" width="156" height="112" rx="50" fill="url(#headGradient)" stroke="#C9D1DD" stroke-width="5"/><rect x="-70" y="-112" width="28" height="102" rx="14" fill="url(#headGradient)" stroke="#C9D1DD" stroke-width="4"/><rect x="-32" y="-126" width="29" height="116" rx="15" fill="url(#headGradient)" stroke="#C9D1DD" stroke-width="4"/><rect x="8" y="-121" width="29" height="111" rx="15" fill="url(#headGradient)" stroke="#C9D1DD" stroke-width="4"/><rect x="47" y="-103" width="27" height="93" rx="14" fill="url(#headGradient)" stroke="#C9D1DD" stroke-width="4"/><rect x="-101" y="-18" width="34" height="92" rx="17" fill="url(#headGradient)" stroke="#C9D1DD" stroke-width="4" transform="rotate(-38 -84 28)"/></g><g id="right-hand-five-fingers" transform="translate(1015 1510) scale(-.62 .62)"><rect x="-78" y="-30" width="156" height="112" rx="50" fill="url(#headGradient)" stroke="#C9D1DD" stroke-width="5"/><rect x="-70" y="-112" width="28" height="102" rx="14" fill="url(#headGradient)" stroke="#C9D1DD" stroke-width="4"/><rect x="-32" y="-126" width="29" height="116" rx="15" fill="url(#headGradient)" stroke="#C9D1DD" stroke-width="4"/><rect x="8" y="-121" width="29" height="111" rx="15" fill="url(#headGradient)" stroke="#C9D1DD" stroke-width="4"/><rect x="47" y="-103" width="27" height="93" rx="14" fill="url(#headGradient)" stroke="#C9D1DD" stroke-width="4"/><rect x="-101" y="-18" width="34" height="92" rx="17" fill="url(#headGradient)" stroke="#C9D1DD" stroke-width="4" transform="rotate(-38 -84 28)"/></g><g id="headphones"><path d="M419.5 378.5Q700 149 980.5 378.5" fill="none" stroke="#0C1222" stroke-width="42" stroke-linecap="round"/><path d="M419.5 378.5Q700 174.5 980.5 378.5" fill="none" stroke="url(#brand)" stroke-width="9" stroke-linecap="round" opacity=".9"/><rect x="382.1" y="340.25" width="74" height="190" rx="35" fill="#080D18" stroke="#1E6BFF" stroke-width="8"/><rect x="955" y="340.25" width="74" height="190" rx="35" fill="#080D18" stroke="#1E6BFF" stroke-width="8"/><rect x="394.85" y="365.75" width="34" height="130" rx="17" fill="url(#brand)" opacity=".95"/><rect x="976.25" y="365.75" width="34" height="130" rx="17" fill="url(#brand)" opacity=".95"/></g><g id="head"><path d="M487.5 242.5H853Q946.5 242.5 955 331.75V523Q955 608 861.5 614.8H632L528.3 684.5L538.5 614.8H487.5Q428 614.8 428 548.5V305.4Q428 242.5 487.5 242.5Z" fill="url(#headGradient)" stroke="#C8D3E4" stroke-width="8"/><path d="M530 312.2H653.25L630.3 339.4H530Z" fill="#1E64FF"/><path d="M530 354.7H630.3L609.9 381.9H530Z" fill="url(#brand)"/><path d="M530 397.2H608.2L587.8 424.4H530Z" fill="#111827"/><ellipse cx="610.75" cy="450.75" rx="34" ry="52" fill="#05070B"/><ellipse cx="789.25" cy="450.75" rx="34" ry="52" fill="#05070B"/><ellipse cx="620.1" cy="438.85" rx="9" ry="14" fill="#FFF" opacity=".88"/><ellipse cx="798.6" cy="438.85" rx="9" ry="14" fill="#FFF" opacity=".88"/><path d="M568.25 376.8q50-22.1 100 0M746.75 376.8q50-22.1 100 0" fill="none" stroke="#111827" stroke-width="11" stroke-linecap="round"/><path d="M626.9 511.1q86 74.8 172 0Z" fill="#05070C"/><path d="M678.75 560.4q25 14.45 50 0" fill="none" stroke="#2479FF" stroke-width="12" stroke-linecap="round"/></g></g></svg>