<svg xmlns="http://www.w3.org/2000/svg" width="2400" height="700" viewBox="0 0 2400 700" role="img" aria-labelledby="title"><title id="title">Canonical Voxy Jarvis-style waveform</title><defs><linearGradient id="brand" x1="0" y1="0" x2="1" y2="0"><stop stop-color="#00D9C0"/><stop offset="1" stop-color="#1E6BFF"/></linearGradient><filter id="glow" x="-40%" y="-100%" width="180%" height="300%"><feGaussianBlur stdDeviation="12" result="b"/><feMerge><feMergeNode in="b"/><feMergeNode in="SourceGraphic"/></feMerge></filter></defs><g fill="none" stroke="url(#brand)" stroke-linecap="round" filter="url(#glow)"><path d="M70 350H2330" opacity=".22" stroke-width="6"/><path d="M90 350 L130 340 L170 365 L210 320 L250 390 L290 285 L330 420 L370 255 L410 445 L450 225 L490 480 L530 195 L570 505 L610 155 L650 540 L690 120 L730 570 L770 95 L810 600 L850 145 L890 555 L930 80 L970 620 L1010 130 L1050 565 L1090 60 L1130 640 L1170 115 L1210 585 L1250 50 L1290 650 L1330 105 L1370 595 L1410 75 L1450 625 L1490 140 L1530 560 L1570 100 L1610 600 L1650 160 L1690 540 L1730 205 L1770 495 L1810 235 L1850 465 L1890 275 L1930 425 L1970 300 L2010 400 L2050 320 L2090 380 L2130 335 L2170 365 L2210 345 L2250 355 L2310 350" stroke-width="18" opacity=".95"/></g></svg>